{"title":"What most schools don't teach - Motivational and Inspirational","uid":8221928,"size":60603003,"categoryP":"other","categoryS":"other","magnet":"?xt=urn:btih:fcc57c29f121b7fff646c918f6eef77d4fcd8e1c&amp;dn=+What+most+schools+don%27t+teach+-+Motivational+and+Inspirational+&amp;tr=udp%3A%2F%2Ftracker.openbittorrent.com%3A80&amp;tr=udp%3A%2F%2Fopen.demonii.com%3A1337&amp;tr=udp%3A%2F%2Ftracker.coppersurfer.tk%3A6969&amp;tr=udp%3A%2F%2Fexodus.desync.com%3A6969","seeders":1,"leechers":1,"uploader":"navi555","files":9,"time":1362496133,"description":"[img]http://imageshack.us/scaled/landing/132/ibrg.jpg[/img]\n\n\nComplete name : What most schools don't teach - Motivational and Inspirational Video - Shrivastava - IBRG.MP4\nFormat : MPEG-4\nFormat profile : Base Media / Version 2\nCodec ID : mp42\nFile size : 57.8 MiB\nDuration : 5mn 43s\nOverall bit rate : 1 411 Kbps\nEncoded date : UTC 2013-02-23 18:23:30\nTagged date : UTC 2013-02-23 18:23:30\ngsst : 0\ngstd : 343746\ngssd : B67032044HH1362459286739454\ngshh :\n\nVideo\nID : 1\nFormat : AVC\nFormat/Info : Advanced Video Codec\nFormat profile : &lt;a class=&quot;__cf_email__&quot; href=&quot;/cdn-cgi/l/email-protection&quot; data-cfemail=&quot;91d9f8f6f9d1dda2bfa0&quot;&gt;[email&amp;#160;protected]&lt;/a&gt;&lt;script cf-hash='f9e31' type=&quot;text/javascript&quot;&gt;\n/* &lt;![CDATA[ */!function(){try{var t=&quot;currentScript&quot;in document?document.currentScript:function(){for(var t=document.getElementsByTagName(&quot;script&quot;),e=t.length;e--;)if(t[e].getAttribute(&quot;cf-hash&quot;))return t[e]}();if(t&amp;&amp;t.previousSibling){var e,r,n,i,c=t.previousSibling,a=c.getAttribute(&quot;data-cfemail&quot;);if(a){for(e=&quot;&quot;,r=parseInt(a.substr(0,2),16),n=2;a.length-n;n+=2)i=parseInt(a.substr(n,2),16)^r,e+=String.fromCharCode(i);e=document.createTextNode(e),c.parentNode.replaceChild(e,c)}}}catch(u){}}();/* ]]&gt; */&lt;/script&gt;\nFormat settings, CABAC : Yes\nFormat settings, ReFrames : 1 frame\nCodec ID : avc1\nCodec ID/Info : Advanced Video Coding\nDuration : 5mn 43s\nBit rate mode : Variable\nBit rate : 1 217 Kbps\nMaximum bit rate : 6 458 Kbps\nWidth : 1 280 pixels\nHeight : 720 pixels\nDisplay aspect ratio : 16:9\nFrame rate mode : Constant\nFrame rate : 23.976 fps\nColor space : YUV\nChroma subsampling : 4:2:0\nBit depth : 8 bits\nScan type : Progressive\nBits/(Pixel*Frame) : 0.055\nStream size : 49.8 MiB (86%)\nTagged date : UTC 2013-02-23 18:23:40\n\nAudio\nID : 2\nFormat : AAC\nFormat/Info : Advanced Audio Codec\nFormat profile : LC\nCodec ID : 40\nDuration : 5mn 43s\nBit rate mode : Variable\nBit rate : 192 Kbps\nMaximum bit rate : 201 Kbps\nChannel(s) : 2 channels\nChannel positions : Front: L R\nSampling rate : 44.1 KHz\nCompression mode : Lossy\nStream size : 7.86 MiB (14%)\n","torrent":{"xt":"urn:btih:fcc57c29f121b7fff646c918f6eef77d4fcd8e1c","amp;dn":"+What+most+schools+don%27t+teach+-+Motivational+and+Inspirational+","amp;tr":["udp%3A%2F%2Ftracker.openbittorrent.com%3A80","udp%3A%2F%2Fopen.demonii.com%3A1337","udp%3A%2F%2Ftracker.coppersurfer.tk%3A6969","udp%3A%2F%2Fexodus.desync.com%3A6969"],"infoHash":"fcc57c29f121b7fff646c918f6eef77d4fcd8e1c","infoHashBuffer":{"type":"Buffer","data":[252,197,124,41,241,33,183,255,246,70,201,24,246,238,247,125,79,205,142,28]},"announce":[],"urlList":[]}}